<mxfile modified="2024-04-08T20:24:57.835Z" host="app.diagrams.net" agent="Mozilla/5.0 (Windows NT 10.0; Win64; x64) AppleWebKit/537.36 (KHTML, like Gecko) Chrome/123.0.0.0 Safari/537.36" etag="P1lOyQ2r5Ou9TC0rxYAR" version="24.2.2" type="github">
  <diagram id="7gcUSTIZ7YSJ5vT40chW" name="Page-1">
    <mxGraphModel dx="1434" dy="866" grid="1" gridSize="10" guides="1" tooltips="1" connect="1" arrows="1" fold="1" page="1" pageScale="1" pageWidth="1169" pageHeight="827" math="0" shadow="0">
      <root>
        <mxCell id="0" />
        <mxCell id="1" parent="0" />
        <mxCell id="MMY5NjCeDIOUIdUrz9f5-23" value="" style="rounded=0;whiteSpace=wrap;html=1;" vertex="1" parent="1">
          <mxGeometry x="535" y="264" width="545" height="186" as="geometry" />
        </mxCell>
        <mxCell id="MMY5NjCeDIOUIdUrz9f5-2" value="" style="aspect=fixed;sketch=0;html=1;dashed=0;whitespace=wrap;fillColor=#2875E2;strokeColor=#ffffff;points=[[0.005,0.63,0],[0.1,0.2,0],[0.9,0.2,0],[0.5,0,0],[0.995,0.63,0],[0.72,0.99,0],[0.5,1,0],[0.28,0.99,0]];shape=mxgraph.kubernetes.icon2;prIcon=secret" vertex="1" parent="1">
          <mxGeometry x="480" y="30" width="50" height="48" as="geometry" />
        </mxCell>
        <mxCell id="MMY5NjCeDIOUIdUrz9f5-3" value="" style="dashed=0;outlineConnect=0;html=1;align=center;labelPosition=center;verticalLabelPosition=bottom;verticalAlign=top;shape=mxgraph.weblogos.github" vertex="1" parent="1">
          <mxGeometry x="130" y="414" width="50" height="50" as="geometry" />
        </mxCell>
        <mxCell id="MMY5NjCeDIOUIdUrz9f5-8" style="edgeStyle=orthogonalEdgeStyle;rounded=0;orthogonalLoop=1;jettySize=auto;html=1;entryX=0.5;entryY=0;entryDx=0;entryDy=0;" edge="1" parent="1" source="MMY5NjCeDIOUIdUrz9f5-4" target="MMY5NjCeDIOUIdUrz9f5-7">
          <mxGeometry relative="1" as="geometry" />
        </mxCell>
        <mxCell id="MMY5NjCeDIOUIdUrz9f5-4" value="github variables" style="text;html=1;align=center;verticalAlign=middle;whiteSpace=wrap;rounded=0;" vertex="1" parent="1">
          <mxGeometry x="60" y="39" width="60" height="30" as="geometry" />
        </mxCell>
        <mxCell id="MMY5NjCeDIOUIdUrz9f5-7" value="github actions" style="text;html=1;align=center;verticalAlign=middle;whiteSpace=wrap;rounded=0;" vertex="1" parent="1">
          <mxGeometry x="60" y="424" width="60" height="30" as="geometry" />
        </mxCell>
        <mxCell id="MMY5NjCeDIOUIdUrz9f5-10" value="ARM_CLIENT_ID_&amp;lt;STAGE&amp;gt;&lt;div&gt;ARM_CLIENT_SECRET_&amp;lt;STAGE&amp;gt;&lt;/div&gt;" style="text;html=1;align=left;verticalAlign=top;whiteSpace=wrap;rounded=0;horizontal=1;" vertex="1" parent="1">
          <mxGeometry x="449.61" y="90" width="320" height="40" as="geometry" />
        </mxCell>
        <mxCell id="MMY5NjCeDIOUIdUrz9f5-12" value="" style="shape=image;html=1;verticalLabelPosition=bottom;verticalAlign=top;imageAspect=0;image=img/clipart/Gear_128x128.png" vertex="1" parent="1">
          <mxGeometry x="130" y="24" width="50" height="60" as="geometry" />
        </mxCell>
        <mxCell id="MMY5NjCeDIOUIdUrz9f5-16" style="edgeStyle=orthogonalEdgeStyle;rounded=0;orthogonalLoop=1;jettySize=auto;html=1;" edge="1" parent="1" source="MMY5NjCeDIOUIdUrz9f5-13">
          <mxGeometry relative="1" as="geometry">
            <mxPoint x="90" y="320" as="targetPoint" />
            <Array as="points">
              <mxPoint x="440" y="310" />
              <mxPoint x="91" y="310" />
            </Array>
          </mxGeometry>
        </mxCell>
        <mxCell id="MMY5NjCeDIOUIdUrz9f5-13" value="github secrets" style="text;html=1;align=center;verticalAlign=middle;whiteSpace=wrap;rounded=0;" vertex="1" parent="1">
          <mxGeometry x="410" y="39" width="60" height="30" as="geometry" />
        </mxCell>
        <mxCell id="MMY5NjCeDIOUIdUrz9f5-15" value="INFRA_RESOURCE_GROUP_NAME_&amp;lt;STAGE&amp;gt;&lt;div&gt;INFRA_SUBSCRIPTION_ID_&amp;lt;STAGE&amp;gt;&lt;/div&gt;&lt;div&gt;INFRA_TENANT_ID_&amp;lt;STAGE&amp;gt;&lt;/div&gt;&lt;div&gt;STATE_RESOURCE_GROUP_NAME_&amp;lt;STAGE&amp;gt;&lt;/div&gt;&lt;div&gt;STATE_STORAGE_ACCOUNT_NAME_&amp;lt;STAGE&amp;gt;&lt;/div&gt;&lt;div&gt;&lt;br&gt;&lt;/div&gt;&lt;div&gt;&amp;lt;STAGE&amp;gt; - PROD - release branches / DEV - main&lt;/div&gt;&lt;div&gt;INFRA - variables regarding our infrastructure&lt;/div&gt;&lt;div&gt;STATE - variables regarding the location of the terraform backend state file&lt;/div&gt;" style="text;html=1;align=left;verticalAlign=top;whiteSpace=wrap;rounded=0;" vertex="1" parent="1">
          <mxGeometry x="110" y="100" width="290" height="160" as="geometry" />
        </mxCell>
        <mxCell id="MMY5NjCeDIOUIdUrz9f5-29" style="edgeStyle=orthogonalEdgeStyle;rounded=0;orthogonalLoop=1;jettySize=auto;html=1;entryX=-0.052;entryY=0.525;entryDx=0;entryDy=0;entryPerimeter=0;" edge="1" parent="1" source="MMY5NjCeDIOUIdUrz9f5-17" target="MMY5NjCeDIOUIdUrz9f5-21">
          <mxGeometry relative="1" as="geometry">
            <Array as="points">
              <mxPoint x="365" y="340" />
              <mxPoint x="582" y="340" />
            </Array>
          </mxGeometry>
        </mxCell>
        <mxCell id="MMY5NjCeDIOUIdUrz9f5-33" value="store state lock" style="edgeLabel;html=1;align=center;verticalAlign=middle;resizable=0;points=[];" vertex="1" connectable="0" parent="MMY5NjCeDIOUIdUrz9f5-29">
          <mxGeometry x="0.2344" y="-4" relative="1" as="geometry">
            <mxPoint as="offset" />
          </mxGeometry>
        </mxCell>
        <mxCell id="MMY5NjCeDIOUIdUrz9f5-36" style="edgeStyle=orthogonalEdgeStyle;rounded=0;orthogonalLoop=1;jettySize=auto;html=1;entryX=0;entryY=0.5;entryDx=0;entryDy=0;" edge="1" parent="1" source="MMY5NjCeDIOUIdUrz9f5-17" target="MMY5NjCeDIOUIdUrz9f5-35">
          <mxGeometry relative="1" as="geometry" />
        </mxCell>
        <mxCell id="MMY5NjCeDIOUIdUrz9f5-37" value="deploy infrastructure" style="edgeLabel;html=1;align=center;verticalAlign=middle;resizable=0;points=[];" vertex="1" connectable="0" parent="MMY5NjCeDIOUIdUrz9f5-36">
          <mxGeometry x="-0.7937" y="-5" relative="1" as="geometry">
            <mxPoint x="22" as="offset" />
          </mxGeometry>
        </mxCell>
        <mxCell id="MMY5NjCeDIOUIdUrz9f5-17" value="" style="image;aspect=fixed;html=1;points=[];align=center;fontSize=12;image=img/lib/azure2/identity/App_Registrations.svg;" vertex="1" parent="1">
          <mxGeometry x="340" y="414" width="49.22" height="50" as="geometry" />
        </mxCell>
        <mxCell id="MMY5NjCeDIOUIdUrz9f5-18" value="&lt;div&gt;ghgewoscout&lt;br&gt;&lt;/div&gt;Azure App Registration&lt;div&gt;(Azure Service Principal)&lt;/div&gt;" style="text;html=1;align=center;verticalAlign=middle;whiteSpace=wrap;rounded=0;" vertex="1" parent="1">
          <mxGeometry x="279.61" y="464" width="170" height="66" as="geometry" />
        </mxCell>
        <mxCell id="MMY5NjCeDIOUIdUrz9f5-19" style="edgeStyle=orthogonalEdgeStyle;rounded=0;orthogonalLoop=1;jettySize=auto;html=1;entryX=-0.041;entryY=0.5;entryDx=0;entryDy=0;entryPerimeter=0;" edge="1" parent="1" source="MMY5NjCeDIOUIdUrz9f5-3" target="MMY5NjCeDIOUIdUrz9f5-17">
          <mxGeometry relative="1" as="geometry" />
        </mxCell>
        <mxCell id="MMY5NjCeDIOUIdUrz9f5-20" value="terraform apply" style="text;html=1;align=center;verticalAlign=middle;whiteSpace=wrap;rounded=0;" vertex="1" parent="1">
          <mxGeometry x="190" y="414" width="130" height="30" as="geometry" />
        </mxCell>
        <mxCell id="MMY5NjCeDIOUIdUrz9f5-21" value="" style="image;aspect=fixed;html=1;points=[];align=center;fontSize=12;image=img/lib/azure2/storage/Storage_Accounts.svg;" vertex="1" parent="1">
          <mxGeometry x="584.61" y="310" width="50" height="40" as="geometry" />
        </mxCell>
        <mxCell id="MMY5NjCeDIOUIdUrz9f5-22" value="Storage Account&lt;div&gt;sagewoscout&lt;/div&gt;" style="text;html=1;align=center;verticalAlign=middle;whiteSpace=wrap;rounded=0;" vertex="1" parent="1">
          <mxGeometry x="560" y="350" width="100" height="30" as="geometry" />
        </mxCell>
        <mxCell id="MMY5NjCeDIOUIdUrz9f5-25" value="" style="rounded=0;whiteSpace=wrap;html=1;" vertex="1" parent="1">
          <mxGeometry x="590" y="234" width="180" height="60" as="geometry" />
        </mxCell>
        <mxCell id="MMY5NjCeDIOUIdUrz9f5-27" value="" style="image;sketch=0;aspect=fixed;html=1;points=[];align=center;fontSize=12;image=img/lib/mscae/ResourceGroup.svg;" vertex="1" parent="1">
          <mxGeometry x="600" y="244" width="50" height="40" as="geometry" />
        </mxCell>
        <mxCell id="MMY5NjCeDIOUIdUrz9f5-28" value="rg-gewoscout-dev" style="text;html=1;align=center;verticalAlign=middle;whiteSpace=wrap;rounded=0;" vertex="1" parent="1">
          <mxGeometry x="660" y="248" width="100" height="30" as="geometry" />
        </mxCell>
        <mxCell id="MMY5NjCeDIOUIdUrz9f5-30" value="" style="image;aspect=fixed;html=1;points=[];align=center;fontSize=12;image=img/lib/azure2/storage/Storage_Accounts.svg;" vertex="1" parent="1">
          <mxGeometry x="704.61" y="310" width="50" height="40" as="geometry" />
        </mxCell>
        <mxCell id="MMY5NjCeDIOUIdUrz9f5-31" value="&lt;div&gt;container&lt;/div&gt;&lt;div&gt;tfgewoscout&lt;/div&gt;" style="text;html=1;align=center;verticalAlign=middle;whiteSpace=wrap;rounded=0;" vertex="1" parent="1">
          <mxGeometry x="680" y="350" width="100" height="30" as="geometry" />
        </mxCell>
        <mxCell id="MMY5NjCeDIOUIdUrz9f5-32" style="edgeStyle=orthogonalEdgeStyle;rounded=0;orthogonalLoop=1;jettySize=auto;html=1;entryX=0.048;entryY=0.475;entryDx=0;entryDy=0;entryPerimeter=0;" edge="1" parent="1" source="MMY5NjCeDIOUIdUrz9f5-21" target="MMY5NjCeDIOUIdUrz9f5-30">
          <mxGeometry relative="1" as="geometry" />
        </mxCell>
        <mxCell id="MMY5NjCeDIOUIdUrz9f5-35" value="DEV infra" style="rounded=0;whiteSpace=wrap;html=1;" vertex="1" parent="1">
          <mxGeometry x="900" y="350" width="120" height="60" as="geometry" />
        </mxCell>
        <mxCell id="MMY5NjCeDIOUIdUrz9f5-38" value="" style="rounded=0;whiteSpace=wrap;html=1;" vertex="1" parent="1">
          <mxGeometry x="530" y="494" width="545" height="186" as="geometry" />
        </mxCell>
        <mxCell id="MMY5NjCeDIOUIdUrz9f5-39" value="" style="image;aspect=fixed;html=1;points=[];align=center;fontSize=12;image=img/lib/azure2/storage/Storage_Accounts.svg;" vertex="1" parent="1">
          <mxGeometry x="579.61" y="540" width="50" height="40" as="geometry" />
        </mxCell>
        <mxCell id="MMY5NjCeDIOUIdUrz9f5-40" value="Storage Account&lt;div&gt;sagewoscout&lt;/div&gt;" style="text;html=1;align=center;verticalAlign=middle;whiteSpace=wrap;rounded=0;" vertex="1" parent="1">
          <mxGeometry x="555" y="580" width="100" height="30" as="geometry" />
        </mxCell>
        <mxCell id="MMY5NjCeDIOUIdUrz9f5-41" value="" style="rounded=0;whiteSpace=wrap;html=1;" vertex="1" parent="1">
          <mxGeometry x="585" y="464" width="180" height="60" as="geometry" />
        </mxCell>
        <mxCell id="MMY5NjCeDIOUIdUrz9f5-42" value="" style="image;sketch=0;aspect=fixed;html=1;points=[];align=center;fontSize=12;image=img/lib/mscae/ResourceGroup.svg;" vertex="1" parent="1">
          <mxGeometry x="595" y="474" width="50" height="40" as="geometry" />
        </mxCell>
        <mxCell id="MMY5NjCeDIOUIdUrz9f5-43" value="rg-gewoscout-prod" style="text;html=1;align=center;verticalAlign=middle;whiteSpace=wrap;rounded=0;" vertex="1" parent="1">
          <mxGeometry x="655" y="478" width="105" height="30" as="geometry" />
        </mxCell>
        <mxCell id="MMY5NjCeDIOUIdUrz9f5-44" value="" style="image;aspect=fixed;html=1;points=[];align=center;fontSize=12;image=img/lib/azure2/storage/Storage_Accounts.svg;" vertex="1" parent="1">
          <mxGeometry x="699.61" y="540" width="50" height="40" as="geometry" />
        </mxCell>
        <mxCell id="MMY5NjCeDIOUIdUrz9f5-45" value="&lt;div&gt;container&lt;/div&gt;&lt;div&gt;tfgewoscout&lt;/div&gt;" style="text;html=1;align=center;verticalAlign=middle;whiteSpace=wrap;rounded=0;" vertex="1" parent="1">
          <mxGeometry x="675" y="580" width="100" height="30" as="geometry" />
        </mxCell>
        <mxCell id="MMY5NjCeDIOUIdUrz9f5-46" style="edgeStyle=orthogonalEdgeStyle;rounded=0;orthogonalLoop=1;jettySize=auto;html=1;entryX=0.048;entryY=0.475;entryDx=0;entryDy=0;entryPerimeter=0;" edge="1" parent="1" source="MMY5NjCeDIOUIdUrz9f5-39" target="MMY5NjCeDIOUIdUrz9f5-44">
          <mxGeometry relative="1" as="geometry" />
        </mxCell>
        <mxCell id="MMY5NjCeDIOUIdUrz9f5-47" value="PROD infra" style="rounded=0;whiteSpace=wrap;html=1;" vertex="1" parent="1">
          <mxGeometry x="895" y="580" width="120" height="60" as="geometry" />
        </mxCell>
        <mxCell id="MMY5NjCeDIOUIdUrz9f5-48" style="edgeStyle=orthogonalEdgeStyle;rounded=0;orthogonalLoop=1;jettySize=auto;html=1;entryX=-0.012;entryY=0.525;entryDx=0;entryDy=0;entryPerimeter=0;exitX=0.5;exitY=0;exitDx=0;exitDy=0;" edge="1" parent="1" source="MMY5NjCeDIOUIdUrz9f5-18" target="MMY5NjCeDIOUIdUrz9f5-39">
          <mxGeometry relative="1" as="geometry">
            <Array as="points">
              <mxPoint x="365" y="561" />
            </Array>
          </mxGeometry>
        </mxCell>
        <mxCell id="MMY5NjCeDIOUIdUrz9f5-49" value="store state lock" style="edgeLabel;html=1;align=center;verticalAlign=middle;resizable=0;points=[];" vertex="1" connectable="0" parent="MMY5NjCeDIOUIdUrz9f5-48">
          <mxGeometry x="-0.1561" y="-2" relative="1" as="geometry">
            <mxPoint x="31" as="offset" />
          </mxGeometry>
        </mxCell>
        <mxCell id="MMY5NjCeDIOUIdUrz9f5-50" style="edgeStyle=orthogonalEdgeStyle;rounded=0;orthogonalLoop=1;jettySize=auto;html=1;exitX=0.5;exitY=0;exitDx=0;exitDy=0;entryX=0;entryY=0.5;entryDx=0;entryDy=0;" edge="1" parent="1" source="MMY5NjCeDIOUIdUrz9f5-18" target="MMY5NjCeDIOUIdUrz9f5-47">
          <mxGeometry relative="1" as="geometry">
            <Array as="points">
              <mxPoint x="365" y="730" />
              <mxPoint x="672" y="730" />
              <mxPoint x="672" y="610" />
            </Array>
          </mxGeometry>
        </mxCell>
        <mxCell id="MMY5NjCeDIOUIdUrz9f5-51" value="deploy infrastructure" style="edgeLabel;html=1;align=center;verticalAlign=middle;resizable=0;points=[];" vertex="1" connectable="0" parent="MMY5NjCeDIOUIdUrz9f5-50">
          <mxGeometry x="-0.2353" relative="1" as="geometry">
            <mxPoint as="offset" />
          </mxGeometry>
        </mxCell>
      </root>
    </mxGraphModel>
  </diagram>
</mxfile>
